<?xml version="1.0" encoding="utf-8"?>
<!-- Generator: Adobe Illustrator 20.1.0, SVG Export Plug-In . SVG Version: 6.00 Build 0)  -->
<svg version="1.1" xmlns="http://www.w3.org/2000/svg" xmlns:xlink="http://www.w3.org/1999/xlink" x="0px" y="0px"
	 viewBox="0 0 841.89 595.28" style="enable-background:new 0 0 841.89 595.28;" xml:space="preserve">
<g id="Warstwa_2">
</g>
<g id="Warstwa_1">
	<g>
		<path style="fill-rule:evenodd;clip-rule:evenodd;fill:#231F20;" d="M431.353,125.564l-78.855,23.912v59.78
			c0,12.248,3.183,24.832,9.002,37.107c1.139-0.282,2.255-0.593,3.269-0.961c6.488-2.356,13.161-5.2,18.384-8.978
			c3.222-2.331,6.876-6.416,8.978-9.834c10.25-16.666-1.253-35.53-7.268-48.738c-1.745-3.832-3.503-7.948-5.558-12.398
			c2.347-4.074,6.983-11.543,7.268-11.543c3.025,5.083,7.314,13.264,10.261,18.383c8.016,13.927,10.218,24.756,25.224,32.492
			c3.763,1.94,11.194,4.555,17.956,2.993c10.312-2.383,19.765-5.682,29.398-8.616c0.59-3.32,2.239-6.42,4.743-8.803l-4.51-10.87
			l-0.685,0.295c-0.935,0.404-1.989-0.028-2.354-0.964c-0.366-0.936,0.096-2.023,1.031-2.427l13.168-5.686
			c0.935-0.404,1.989,0.029,2.355,0.965c0.365,0.936-0.097,2.023-1.032,2.426l-0.854,0.369l4.729,11.397
			c6.139,0.202,11.866,3.811,14.328,9.745c3.361,8.101-0.626,17.4-8.905,20.769c-6.621,2.695-13.974,0.771-18.376-4.248
			c-1.985,0.871-3.891,1.731-5.674,2.489c-12.025,5.111-26.622,10.166-33.347,20.521c-5.281,8.131-0.895,20.69,2.138,27.789
			c3.894,9.115,9.954,26.394,14.41,40.636c36.177-25.292,59.633-61.038,59.633-94.311v-59.78L431.353,125.564z M435.156,198.801
			c-9.973,2.417-18.475-11.145-15.391-20.949c1.517-4.823,4.905-8.987,9.833-9.833C449.332,167.513,451.13,194.929,435.156,198.801z
			"/>
		<path style="fill-rule:evenodd;clip-rule:evenodd;fill:#231F20;" d="M425.478,292.002c-3.637-11.055-8.176-21.954-17.101-27.789
			c-3.183-2.082-13.23-7.645-37.364-1.395c13.933,20.386,34.94,38.997,60.339,52.545
			C431.591,315.236,425.742,292.962,425.478,292.002z"/>
	</g>
	<g>
		<path style="fill:#231F20;" d="M268.659,401.863c-8.446,0-15.298-3.187-15.298-15.298v-23.638c0-0.585,0.478-1.01,1.062-1.01
			h6.958c0.584,0,1.062,0.425,1.062,1.01v23.638c0,5.419,1.434,7.703,6.215,7.703c4.78,0,6.267-2.284,6.267-7.703v-23.638
			c0-0.585,0.478-1.01,1.062-1.01h6.906c0.584,0,1.115,0.425,1.115,1.01v23.638C284.01,398.676,277.105,401.863,268.659,401.863z"/>
		<path style="fill:#231F20;" d="M320.508,401.385h-5.206c-1.116,0-1.912-0.212-2.762-1.647l-12.111-20.928
			c-0.212-0.319-0.319-0.425-0.478-0.425c-0.159,0-0.265,0.106-0.265,0.425v21.513c0,0.585-0.478,1.062-1.062,1.062h-6.268
			c-0.584,0-1.062-0.478-1.062-1.062v-36.386c0-1.116,0.903-2.019,2.019-2.019h5.365c1.062,0,1.594,0.532,2.232,1.647l12.589,21.885
			c0.212,0.319,0.265,0.425,0.425,0.425c0.106,0,0.265-0.106,0.265-0.478v-22.47c0-0.585,0.478-1.01,1.062-1.01h6.269
			c0.584,0,1.062,0.425,1.062,1.01v36.44C322.58,400.483,321.623,401.385,320.508,401.385z"/>
		<path style="fill:#231F20;" d="M338.095,401.385h-7.118c-0.584,0-0.956-0.478-0.956-1.062v-37.396c0-0.585,0.372-1.01,0.956-1.01
			h7.118c0.585,0,1.01,0.425,1.01,1.01v37.396C339.105,400.908,338.68,401.385,338.095,401.385z"/>
		<path style="fill:#231F20;" d="M389.145,362.715l-4.94,34.793c-0.425,3.08-2.072,4.037-4.887,4.037h-3.028
			c-2.337,0-4.196-0.903-4.887-3.612l-4.196-15.883c-0.107-0.425-0.212-0.425-0.478-0.425c-0.266,0-0.319,0-0.425,0.425
			l-4.196,15.883c-0.691,2.709-2.55,3.612-4.887,3.612h-3.028c-2.816,0-4.462-0.957-4.887-4.037l-4.94-34.793
			c0-0.053,0-0.106,0-0.106c0-0.531,0.425-0.691,0.85-0.691h7.224c0.425,0,0.797,0.425,0.85,1.01l3.028,28.472
			c0.053,0.478,0.106,0.69,0.319,0.69c0.16,0,0.265-0.212,0.372-0.69l3.825-14.608c0.531-2.018,1.859-2.55,3.293-2.55h5.259
			c1.435,0,2.762,0.532,3.293,2.55l3.825,14.608c0.106,0.478,0.212,0.69,0.372,0.69c0.212,0,0.266-0.212,0.319-0.69l3.027-28.472
			c0.053-0.585,0.425-1.01,0.85-1.01h7.224c0.425,0,0.85,0.16,0.85,0.691C389.145,362.609,389.145,362.662,389.145,362.715z"/>
		<path style="fill:#231F20;" d="M416.295,401.173c-1.859,0.265-4.568,0.69-10.305,0.69c-6.853,0-12.908-1.753-12.908-11.42v-17.635
			c0-9.668,6.108-11.367,12.961-11.367c5.737,0,8.392,0.425,10.252,0.69c0.744,0.107,1.062,0.372,1.062,1.062v4.94
			c0,0.584-0.478,1.062-1.062,1.062h-10.783c-2.496,0-3.4,0.85-3.4,3.612v4.834h13.758c0.585,0,1.062,0.478,1.062,1.062v5.047
			c0,0.585-0.478,1.062-1.062,1.062h-13.758v5.631c0,2.762,0.903,3.612,3.4,3.612h10.783c0.585,0,1.062,0.478,1.062,1.062v4.94
			C417.357,400.748,417.038,401.067,416.295,401.173z"/>
		<path style="fill:#231F20;" d="M453.748,401.385h-8.128c-0.584,0-0.796-0.531-1.062-1.062l-7.118-13.439l-0.585,0.053
			c-1.115,0-2.762-0.106-3.771-0.106v13.492c0,0.585-0.478,1.062-1.062,1.062h-6.905c-0.585,0-1.062-0.478-1.062-1.062V364.68
			c0-1.805,0.744-2.284,2.39-2.55c2.444-0.372,6.959-0.69,10.783-0.69c9.03,0,15.989,3.027,15.989,12.43v0.691
			c0,5.63-2.975,9.083-6.852,10.624l8.021,14.979c0.106,0.212,0.159,0.425,0.159,0.585
			C454.544,401.12,454.332,401.385,453.748,401.385z M444.186,373.87c0-3.241-2.497-4.728-6.959-4.728
			c-0.744,0-3.506,0.107-4.143,0.16V379.5c0.584,0.053,3.187,0.106,3.771,0.106c5.578,0,7.331-1.434,7.331-5.046V373.87z"/>
		<path style="fill:#231F20;" d="M470.538,401.863c-4.197,0-7.331-0.478-10.04-1.168c-0.531-0.16-1.062-0.478-1.062-1.062v-5.206
			c0-0.743,0.425-1.009,0.956-1.009c0.053,0,0.106,0,0.16,0c2.178,0.212,8.021,0.637,10.092,0.637c3.665,0,4.728-1.169,4.728-3.718
			c0-1.54-0.744-2.39-3.506-4.037l-7.33-4.356c-4.94-2.921-6.268-6.268-6.268-10.145c0-5.844,3.293-10.358,13.598-10.358
			c3.877,0,9.243,0.637,11.261,1.169c0.425,0.106,0.797,0.372,0.797,0.956v5.365c0,0.478-0.212,0.903-0.903,0.903
			c0,0-0.053,0-0.106,0c-1.487-0.106-7.649-0.584-11.261-0.584c-3.027,0-4.143,0.903-4.143,2.815c0,1.487,0.691,2.178,3.559,3.718
			l6.799,3.665c5.524,2.975,7.171,6.48,7.171,10.783C485.039,395.861,481.321,401.863,470.538,401.863z"/>
		<path style="fill:#231F20;" d="M519.625,363.087l-8.021,18.379c-1.062,2.444-2.178,3.559-3.452,4.09v14.767
			c0,0.585-0.478,1.062-1.062,1.062h-6.959c-0.585,0-1.062-0.478-1.062-1.062v-14.767c-1.275-0.531-2.443-1.646-3.506-4.09
			l-8.021-18.379c-0.053-0.107-0.053-0.266-0.053-0.372c0-0.425,0.319-0.797,0.85-0.797h7.649c0.531,0,0.903,0.425,1.062,0.903
			l5.737,14.98c0.266,0.69,0.425,0.797,0.796,0.797c0.372,0,0.532-0.107,0.797-0.797l5.737-14.98
			c0.16-0.478,0.531-0.903,1.062-0.903h7.649c0.531,0,0.85,0.372,0.85,0.797C519.677,362.821,519.677,362.98,519.625,363.087z"/>
		<path style="fill:#231F20;" d="M549.534,369.408h-8.606v30.915c0,0.585-0.478,1.062-1.062,1.062h-6.958
			c-0.584,0-1.062-0.478-1.062-1.062v-30.915h-8.658c-0.585,0-1.062-0.425-1.062-1.009v-5.472c0-0.585,0.478-1.01,1.062-1.01h26.347
			c0.584,0,1.115,0.425,1.115,1.01v5.472C550.65,368.983,550.118,369.408,549.534,369.408z"/>
		<path style="fill:#231F20;" d="M577.532,401.173c-1.859,0.265-4.568,0.69-10.306,0.69c-6.852,0-12.907-1.753-12.907-11.42v-17.635
			c0-9.668,6.108-11.367,12.961-11.367c5.737,0,8.392,0.425,10.252,0.69c0.743,0.107,1.062,0.372,1.062,1.062v4.94
			c0,0.584-0.478,1.062-1.062,1.062h-10.783c-2.497,0-3.4,0.85-3.4,3.612v4.834h13.758c0.585,0,1.062,0.478,1.062,1.062v5.047
			c0,0.585-0.478,1.062-1.062,1.062h-13.758v5.631c0,2.762,0.903,3.612,3.4,3.612h10.783c0.585,0,1.062,0.478,1.062,1.062v4.94
			C578.594,400.748,578.275,401.067,577.532,401.173z"/>
		<path style="fill:#231F20;" d="M610.31,369.408h-8.605v30.915c0,0.585-0.478,1.062-1.062,1.062h-6.959
			c-0.585,0-1.062-0.478-1.062-1.062v-30.915h-8.659c-0.583,0-1.062-0.425-1.062-1.009v-5.472c0-0.585,0.479-1.01,1.062-1.01h26.347
			c0.585,0,1.116,0.425,1.116,1.01v5.472C611.426,368.983,610.894,369.408,610.31,369.408z"/>
		<path style="fill:#231F20;" d="M264.807,451.472h-4.964c-0.338,0-0.602-0.338-0.602-0.752v-15.68c0-0.263-0.113-0.301-0.188-0.301
			c-0.113,0-0.188,0.075-0.301,0.263l-3.384,6.204c-0.264,0.452-0.639,0.64-1.128,0.64h-3.008c-0.489,0-0.865-0.188-1.128-0.64
			l-3.384-6.204c-0.113-0.188-0.188-0.263-0.301-0.263c-0.075,0-0.188,0.038-0.188,0.301v15.68c0,0.414-0.264,0.752-0.602,0.752
			h-4.964c-0.301,0-0.639-0.113-0.639-0.526v-26.133c0-0.79,0.564-1.278,1.354-1.278h3.535c0.789,0,1.316,0.376,1.654,1.015
			l5.753,10.717c0.15,0.301,0.263,0.488,0.413,0.488c0.151,0,0.264-0.188,0.414-0.488l5.753-10.717
			c0.338-0.64,0.865-1.015,1.655-1.015h3.534c0.79,0,1.354,0.526,1.354,1.316v26.096
			C265.446,451.359,265.108,451.472,264.807,451.472z"/>
		<path style="fill:#231F20;" d="M286.019,451.322c-1.241,0.263-4.136,0.488-6.129,0.488c-4.851,0-9.175-1.241-9.175-8.083v-0.414
			l-1.429,1.429c-0.113,0.114-0.188,0.151-0.263,0.151c-0.113,0-0.188-0.076-0.188-0.227v-5.226c0-0.038,0-0.075,0-0.113
			c0-0.301,0-0.376,0.339-0.715l1.541-1.541v-12.785c0-0.413,0.339-0.751,0.752-0.751h4.888c0.413,0,0.752,0.338,0.752,0.751v6.506
			l2.632-2.557c0.076-0.075,0.188-0.113,0.301-0.113c0.15,0,0.301,0.113,0.301,0.301v5.076c0,0.301,0,0.451-0.263,0.677
			l-2.971,2.895v6.656c0,1.955,0.639,2.557,2.406,2.557h6.505c0.413,0,0.752,0.338,0.752,0.751v3.497
			C286.771,451.021,286.545,451.209,286.019,451.322z"/>
		<path style="fill:#231F20;" d="M299.596,451.81c-6.204,0-11.13-3.347-11.13-12.07v-4.474c0-8.724,4.926-12.07,11.13-12.07
			c6.204,0,11.13,3.346,11.13,12.07v4.474C310.726,448.463,305.8,451.81,299.596,451.81z M304.259,435.266
			c0-4.512-1.504-6.431-4.663-6.431c-3.158,0-4.625,1.918-4.625,6.431v4.474c0,4.512,1.467,6.431,4.625,6.431
			c3.158,0,4.663-1.918,4.663-6.431V435.266z"/>
		<path style="fill:#231F20;" d="M324.455,451.81c-3.121,0-6.468-0.301-8.01-0.563c-0.714-0.113-1.091-0.452-1.091-1.316v-24.855
			c0-0.865,0.376-1.203,1.091-1.316c1.542-0.263,4.888-0.563,8.01-0.563c7.482,0,11.994,3.948,11.994,11.881v4.851
			C336.449,447.862,331.937,451.81,324.455,451.81z M330.019,435.077c0-5.076-2.181-6.429-5.565-6.429
			c-0.94,0-2.144,0.038-2.67,0.075v17.56c0.526,0.038,1.73,0.075,2.67,0.075c3.384,0,5.565-1.354,5.565-6.431V435.077z"/>
		<path style="fill:#231F20;" d="M357.323,451.322c-1.317,0.188-3.234,0.488-7.295,0.488c-4.851,0-9.137-1.241-9.137-8.083v-12.484
			c0-6.844,4.324-8.046,9.175-8.046c4.061,0,5.941,0.301,7.258,0.488c0.526,0.075,0.752,0.263,0.752,0.752v3.496
			c0,0.414-0.339,0.752-0.752,0.752h-7.633c-1.767,0-2.406,0.602-2.406,2.557v3.422h9.739c0.414,0,0.752,0.338,0.752,0.752v3.572
			c0,0.413-0.338,0.751-0.752,0.751h-9.739v3.987c0,1.955,0.639,2.557,2.406,2.557h7.633c0.413,0,0.752,0.338,0.752,0.751v3.497
			C358.074,451.021,357.848,451.247,357.323,451.322z"/>
		<path style="fill:#231F20;" d="M381.427,429.099c-0.038,0-0.075,0-0.113,0c-1.805-0.075-4.625-0.301-7.821-0.301
			c-3.046,0-4.926,1.466-4.926,6.392v4.7c0,5.19,2.369,6.393,4.211,6.393c1.053,0,1.993-0.038,2.895-0.113v-8.649
			c0-0.413,0.301-0.751,0.714-0.751h4.813c0.414,0,0.752,0.338,0.752,0.751v12.635c0,0.526-0.188,0.752-0.752,0.865
			c-2.03,0.413-4.663,0.789-8.423,0.789c-4.286,0-10.717-2.444-10.717-11.957v-4.663c0-9.587,5.979-11.994,11.431-11.994
			c3.76,0,6.468,0.563,7.859,0.864c0.376,0.075,0.639,0.225,0.639,0.565v3.985C381.991,429.024,381.766,429.099,381.427,429.099z"/>
		<path style="fill:#231F20;" d="M397.562,451.81c-6.205,0-11.13-3.347-11.13-12.07v-4.474c0-8.724,4.926-12.07,11.13-12.07
			c6.204,0,11.13,3.346,11.13,12.07v4.474C408.692,448.463,403.766,451.81,397.562,451.81z M402.225,435.266
			c0-4.512-1.504-6.431-4.663-6.431c-3.158,0-4.625,1.918-4.625,6.431v4.474c0,4.512,1.467,6.431,4.625,6.431
			c3.158,0,4.663-1.918,4.663-6.431V435.266z"/>
		<path style="fill:#231F20;" d="M433.59,451.81c-6.205,0-11.13-3.347-11.13-12.07v-4.474c0-8.724,4.926-12.07,11.13-12.07
			c6.204,0,11.13,3.346,11.13,12.07v4.474C444.72,448.463,439.794,451.81,433.59,451.81z M438.253,435.266
			c0-4.512-1.504-6.431-4.663-6.431c-3.158,0-4.625,1.918-4.625,6.431v4.474c0,4.512,1.467,6.431,4.625,6.431
			c3.158,0,4.663-1.918,4.663-6.431V435.266z"/>
		<path style="fill:#231F20;" d="M458.449,451.81c-3.121,0-6.468-0.301-8.01-0.563c-0.714-0.113-1.091-0.452-1.091-1.316v-24.855
			c0-0.865,0.376-1.203,1.091-1.316c1.542-0.263,4.888-0.563,8.01-0.563c7.482,0,11.994,3.948,11.994,11.881v4.851
			C470.444,447.862,465.932,451.81,458.449,451.81z M464.014,435.077c0-5.076-2.181-6.429-5.565-6.429
			c-0.94,0-2.144,0.038-2.67,0.075v17.56c0.526,0.038,1.73,0.075,2.67,0.075c3.384,0,5.565-1.354,5.565-6.431V435.077z"/>
		<path style="fill:#231F20;" d="M496.693,424.475l-8.949,12.709l8.987,13.499c0.113,0.15,0.15,0.302,0.15,0.414
			c0,0.225-0.188,0.376-0.527,0.376h-6.468c-0.451,0-0.639-0.225-0.827-0.526l-7.633-12.409v12.183c0,0.414-0.338,0.752-0.752,0.752
			h-4.926c-0.414,0-0.752-0.338-0.752-0.752v-26.471c0-0.413,0.339-0.714,0.752-0.714h4.926c0.414,0,0.752,0.301,0.752,0.714v11.957
			l8.272-12.22c0.188-0.301,0.413-0.451,0.827-0.451h5.753c0.413,0,0.602,0.188,0.602,0.413
			C496.882,424.098,496.806,424.286,496.693,424.475z"/>
		<path style="fill:#231F20;" d="M521.514,451.472h-5.753c-0.414,0-0.564-0.376-0.752-0.752l-5.038-9.513l-0.414,0.038
			c-0.789,0-1.955-0.075-2.669-0.075v9.551c0,0.414-0.339,0.752-0.752,0.752h-4.888c-0.414,0-0.752-0.338-0.752-0.752v-25.231
			c0-1.278,0.526-1.616,1.692-1.804c1.73-0.263,4.926-0.488,7.633-0.488c6.392,0,11.318,2.142,11.318,8.798v0.488
			c0,3.987-2.106,6.431-4.851,7.52l5.678,10.604c0.075,0.15,0.113,0.302,0.113,0.414
			C522.078,451.284,521.928,451.472,521.514,451.472z M514.746,431.995c0-2.294-1.767-3.347-4.926-3.347
			c-0.526,0-2.482,0.075-2.933,0.113v7.219c0.414,0.038,2.256,0.075,2.669,0.075c3.948,0,5.189-1.015,5.189-3.572V431.995z"/>
		<path style="fill:#231F20;" d="M545.47,424.361l-5.678,13.01c-0.753,1.73-1.542,2.519-2.444,2.896v10.452
			c0,0.414-0.339,0.752-0.752,0.752h-4.926c-0.414,0-0.752-0.338-0.752-0.752v-10.452c-0.903-0.377-1.73-1.166-2.482-2.896
			l-5.678-13.01c-0.038-0.075-0.038-0.188-0.038-0.263c0-0.301,0.226-0.563,0.602-0.563h5.415c0.376,0,0.639,0.301,0.752,0.639
			l4.061,10.604c0.188,0.49,0.301,0.565,0.564,0.565c0.264,0,0.376-0.075,0.564-0.565l4.061-10.604
			c0.113-0.338,0.376-0.639,0.752-0.639h5.415c0.376,0,0.602,0.263,0.602,0.563C545.508,424.173,545.508,424.286,545.47,424.361z"/>
		<path style="fill:#231F20;" d="M579.09,424.098l-3.497,24.63c-0.301,2.181-1.466,2.857-3.459,2.857h-2.144
			c-1.654,0-2.97-0.639-3.459-2.557l-2.97-11.242c-0.075-0.302-0.15-0.302-0.338-0.302c-0.189,0-0.227,0-0.302,0.302l-2.97,11.242
			c-0.49,1.918-1.805,2.557-3.459,2.557h-2.144c-1.992,0-3.158-0.676-3.459-2.857l-3.497-24.63c0-0.038,0-0.075,0-0.075
			c0-0.376,0.301-0.488,0.602-0.488h5.114c0.3,0,0.565,0.301,0.602,0.714l2.142,20.155c0.038,0.338,0.075,0.49,0.227,0.49
			c0.113,0,0.188-0.151,0.263-0.49l2.707-10.34c0.376-1.43,1.316-1.805,2.331-1.805h3.722c1.015,0,1.956,0.376,2.331,1.805
			l2.707,10.34c0.075,0.338,0.15,0.49,0.264,0.49c0.15,0,0.188-0.151,0.225-0.49l2.142-20.155c0.039-0.413,0.302-0.714,0.602-0.714
			h5.114c0.302,0,0.602,0.113,0.602,0.488C579.09,424.023,579.09,424.06,579.09,424.098z"/>
		<path style="fill:#231F20;" d="M598.46,451.172c-0.79,0.263-2.971,0.639-5.603,0.639c-5.716,0-11.13-3.008-11.13-11.957v-4.738
			c0-8.949,5.414-11.919,11.13-11.919c2.632,0,4.813,0.376,5.603,0.639c0.526,0.15,0.826,0.301,0.826,0.828v3.647
			c0,0.451-0.225,0.751-0.714,0.751c-0.038,0-0.075,0-0.113,0c-1.43-0.113-3.497-0.301-5.565-0.301
			c-2.594,0-4.663,1.354-4.663,6.354v4.738c0,5.002,2.068,6.355,4.663,6.355c2.068,0,4.136-0.189,5.565-0.302
			c0.038,0,0.075,0,0.113,0c0.488,0,0.714,0.302,0.714,0.752v3.647C599.287,450.832,598.986,451.021,598.46,451.172z"/>
		<path style="fill:#231F20;" d="M624.333,424.361l-5.678,13.01c-0.752,1.73-1.541,2.519-2.444,2.896v10.452
			c0,0.414-0.338,0.752-0.753,0.752h-4.926c-0.413,0-0.753-0.338-0.753-0.752v-10.452c-0.902-0.377-1.729-1.166-2.482-2.896
			l-5.677-13.01c-0.038-0.075-0.038-0.188-0.038-0.263c0-0.301,0.225-0.563,0.601-0.563h5.415c0.376,0,0.639,0.301,0.751,0.639
			l4.062,10.604c0.188,0.49,0.301,0.565,0.563,0.565s0.376-0.075,0.565-0.565l4.061-10.604c0.113-0.338,0.376-0.639,0.752-0.639
			h5.414c0.376,0,0.602,0.263,0.602,0.563C624.37,424.173,624.37,424.286,624.333,424.361z"/>
	</g>
</g>
</svg>
